<svg width="100" height="100" viewBox="0 0 100 100" fill="none" xmlns="http://www.w3.org/2000/svg">
<g clip-path="url(#clip0)">
<path d="M44.2447 18.6352C45.7415 14.0287 52.2585 14.0287 53.7553 18.6353L59.1031 35.0942C59.7725 37.1543 61.6923 38.5491 63.8584 38.5491H81.1644C86.008 38.5491 88.0219 44.7472 84.1033 47.5942L70.1025 57.7664C68.3501 59.0397 67.6168 61.2965 68.2861 63.3566L73.634 79.8156C75.1307 84.4222 69.8583 88.2528 65.9398 85.4058L51.9389 75.2336C50.1865 73.9603 47.8135 73.9603 46.0611 75.2336L32.0602 85.4058C28.1417 88.2528 22.8693 84.4221 24.366 79.8156L29.7139 63.3566C30.3832 61.2965 29.6499 59.0397 27.8975 57.7664L13.8967 47.5942C9.97809 44.7472 11.992 38.5491 16.8356 38.5491H34.1416C36.3077 38.5491 38.2275 37.1543 38.8969 35.0942L44.2447 18.6352Z" fill="#BB8A8A"/>
<path d="M53.144 57.478C53.204 57.49 53.306 57.496 53.45 57.496C53.594 57.496 53.726 57.49 53.846 57.478C53.894 57.598 53.918 57.706 53.918 57.802C53.918 57.886 53.906 57.952 53.882 58C53.33 58.036 52.826 58.102 52.37 58.198C51.926 58.306 51.68 58.36 51.632 58.36C51.356 58.36 50.396 57.028 48.752 54.364C48.116 53.308 47.762 52.726 47.69 52.618L49.454 51.322C50.114 50.842 50.726 50.302 51.29 49.702C50.894 49.618 50.45 49.57 49.958 49.558C49.922 49.486 49.904 49.396 49.904 49.288L49.958 49.072C50.942 49.108 51.59 49.126 51.902 49.126C52.214 49.126 52.67 49.102 53.27 49.054C53.342 49.15 53.378 49.294 53.378 49.486L49.184 52.258C49.808 53.242 50.402 54.172 50.966 55.048C51.53 55.912 51.974 56.524 52.298 56.884C52.622 57.244 52.904 57.442 53.144 57.478ZM48.482 58.054L46.97 58C46.034 58 45.188 58.048 44.432 58.144C44.372 58.072 44.342 57.97 44.342 57.838L44.36 57.694C44.852 57.586 45.182 57.424 45.35 57.208C45.53 56.98 45.662 56.614 45.746 56.11C45.842 55.594 45.89 53.71 45.89 50.458V45.85C45.89 44.758 45.764 44.092 45.512 43.852C45.38 43.72 45.212 43.642 45.008 43.618L44.36 43.546C44.324 43.486 44.306 43.414 44.306 43.33C44.306 43.234 44.324 43.156 44.36 43.096C45.212 42.94 45.872 42.748 46.34 42.52C46.652 42.364 47.006 42.154 47.402 41.89C47.522 41.89 47.618 41.95 47.69 42.07C47.438 43.642 47.312 46.456 47.312 50.512V52.618C47.312 55.774 47.384 57.376 47.528 57.424C47.684 57.472 48.002 57.496 48.482 57.496C48.518 57.58 48.536 57.676 48.536 57.784C48.536 57.892 48.518 57.982 48.482 58.054Z" fill="#845C5C"/>
</g>
<defs>
<clipPath id="clip0">
<rect width="100" height="100" fill="white"/>
</clipPath>
</defs>
</svg>
